<?xml version="1.0" encoding="UTF-8" standalone="no"?>
<!DOCTYPE svg PUBLIC "-//W3C//DTD SVG 1.0//EN" "http://www.w3.org/TR/2001/PR-SVG-20010719/DTD/svg10.dtd">
<svg width="34cm" height="30cm" viewBox="59 29 672 592" xmlns="http://www.w3.org/2000/svg" xmlns:xlink="http://www.w3.org/1999/xlink">
  <g>
    <polygon style="fill: #ffffff" points="500,40 510,30 650,30 650,150 640,160 500,160 500,40 "/>
    <polygon style="fill: none; fill-opacity:0; stroke-width: 2; stroke: #000000" points="500,40 510,30 650,30 650,150 640,160 500,160 500,40 "/>
    <line style="fill: none; fill-opacity:0; stroke-width: 2; stroke: #000000" x1="500" y1="40" x2="640" y2="40"/>
    <line style="fill: none; fill-opacity:0; stroke-width: 2; stroke: #000000" x1="640" y1="40" x2="650" y2="30"/>
    <line style="fill: none; fill-opacity:0; stroke-width: 2; stroke: #000000" x1="640" y1="40" x2="640" y2="160"/>
    <text font-size="12.8" style="fill: #000000;text-anchor:start;font-family:sans-serif;font-style:normal;font-weight:normal" x="510" y="61.9">
      <tspan x="510" y="61.9">Web server</tspan>
    </text>
    <line style="fill: none; fill-opacity:0; stroke-width: 1; stroke: #000000" x1="510" y1="64.9" x2="583.3" y2="64.9"/>
  </g>
  <g>
    <polygon style="fill: #ffffff" points="60,40 70,30 430,30 430,350 420,360 60,360 60,40 "/>
    <polygon style="fill: none; fill-opacity:0; stroke-width: 2; stroke: #000000" points="60,40 70,30 430,30 430,350 420,360 60,360 60,40 "/>
    <line style="fill: none; fill-opacity:0; stroke-width: 2; stroke: #000000" x1="60" y1="40" x2="420" y2="40"/>
    <line style="fill: none; fill-opacity:0; stroke-width: 2; stroke: #000000" x1="420" y1="40" x2="430" y2="30"/>
    <line style="fill: none; fill-opacity:0; stroke-width: 2; stroke: #000000" x1="420" y1="40" x2="420" y2="360"/>
    <text font-size="12.8" style="fill: #000000;text-anchor:start;font-family:sans-serif;font-style:normal;font-weight:normal" x="70" y="61.9">
      <tspan x="70" y="61.9">Browser</tspan>
    </text>
    <line style="fill: none; fill-opacity:0; stroke-width: 1; stroke: #000000" x1="70" y1="64.9" x2="122.15" y2="64.9"/>
  </g>
  <g>
    <rect style="fill: #ffffff" x="520" y="100" width="96.3" height="36"/>
    <rect style="fill: none; fill-opacity:0; stroke-width: 2; stroke: #000000" x="520" y="100" width="96.3" height="36"/>
    <text font-size="12.8" style="fill: #000000;text-anchor:middle;font-family:sans-serif;font-style:normal;font-weight:normal" x="568.15" y="121.9">
      <tspan x="568.15" y="121.9">Static HTML</tspan>
    </text>
    <line style="fill: none; fill-opacity:0; stroke-width: 1; stroke: #000000" x1="530" y1="124.9" x2="606.3" y2="124.9"/>
  </g>
  <g>
    <rect style="fill: #ffffff" x="280" y="260" width="122.8" height="86"/>
    <rect style="fill: none; fill-opacity:0; stroke-width: 2; stroke: #000000" x="280" y="260" width="122.8" height="86"/>
    <rect style="fill: #ffffff" x="260" y="282" width="40" height="14"/>
    <rect style="fill: none; fill-opacity:0; stroke-width: 2; stroke: #000000" x="260" y="282" width="40" height="14"/>
    <rect style="fill: #ffffff" x="260" y="310" width="40" height="14"/>
    <rect style="fill: none; fill-opacity:0; stroke-width: 2; stroke: #000000" x="260" y="310" width="40" height="14"/>
    <text font-size="12.8" style="fill: #000000;text-anchor:start;font-family:sans-serif;font-style:normal;font-weight:normal" x="308" y="285.9">&lt;&lt;HTML5&gt;&gt;</text>
    <text font-size="12.8" style="fill: #000000;text-anchor:start;font-family:sans-serif;font-style:normal;font-weight:normal" x="308" y="301.9">
      <tspan x="308" y="301.9">localStorage</tspan>
    </text>
  </g>
  <g>
    <rect style="fill: #ffffff" x="100" y="260" width="122.8" height="86"/>
    <rect style="fill: none; fill-opacity:0; stroke-width: 2; stroke: #000000" x="100" y="260" width="122.8" height="86"/>
    <rect style="fill: #ffffff" x="80" y="282" width="40" height="14"/>
    <rect style="fill: none; fill-opacity:0; stroke-width: 2; stroke: #000000" x="80" y="282" width="40" height="14"/>
    <rect style="fill: #ffffff" x="80" y="310" width="40" height="14"/>
    <rect style="fill: none; fill-opacity:0; stroke-width: 2; stroke: #000000" x="80" y="310" width="40" height="14"/>
    <text font-size="12.8" style="fill: #000000;text-anchor:start;font-family:sans-serif;font-style:normal;font-weight:normal" x="128" y="285.9">&lt;&lt;HTML5&gt;&gt;</text>
    <text font-size="12.8" style="fill: #000000;text-anchor:start;font-family:sans-serif;font-style:normal;font-weight:normal" x="128" y="301.9">
      <tspan x="128" y="301.9">PageCache</tspan>
    </text>
  </g>
  <g>
    <rect style="fill: #ffffff" x="100" y="100" width="300" height="120"/>
    <rect style="fill: none; fill-opacity:0; stroke-width: 2; stroke: #000000" x="100" y="100" width="300" height="120"/>
    <rect style="fill: #ffffff" x="100" y="80" width="88.7" height="20"/>
    <rect style="fill: none; fill-opacity:0; stroke-width: 2; stroke: #000000" x="100" y="80" width="88.7" height="20"/>
    <text font-size="12.7998" style="fill: #000000;text-anchor:start;font-family:monospace;font-style:normal;font-weight:normal" x="102" y="95">Static site</text>
  </g>
  <g>
    <rect style="fill: #ffffff" x="240" y="120" width="124.6" height="70"/>
    <rect style="fill: none; fill-opacity:0; stroke-width: 2; stroke: #000000" x="240" y="120" width="124.6" height="70"/>
    <rect style="fill: #ffffff" x="220" y="134" width="40" height="14"/>
    <rect style="fill: none; fill-opacity:0; stroke-width: 2; stroke: #000000" x="220" y="134" width="40" height="14"/>
    <rect style="fill: #ffffff" x="220" y="162" width="40" height="14"/>
    <rect style="fill: none; fill-opacity:0; stroke-width: 2; stroke: #000000" x="220" y="162" width="40" height="14"/>
    <text font-size="12.8" style="fill: #000000;text-anchor:start;font-family:sans-serif;font-style:normal;font-weight:normal" x="268" y="145.9">
      <tspan x="268" y="145.9">jQuery Mobile</tspan>
    </text>
  </g>
  <g>
    <rect style="fill: #ffffff" x="120" y="140" width="55.65" height="36"/>
    <rect style="fill: none; fill-opacity:0; stroke-width: 2; stroke: #000000" x="120" y="140" width="55.65" height="36"/>
    <text font-size="12.8" style="fill: #000000;text-anchor:middle;font-family:sans-serif;font-style:normal;font-weight:normal" x="147.825" y="161.9">
      <tspan x="147.825" y="161.9">HTML</tspan>
    </text>
    <line style="fill: none; fill-opacity:0; stroke-width: 1; stroke: #000000" x1="130" y1="164.9" x2="165.65" y2="164.9"/>
  </g>
  <g>
    <line style="fill: none; fill-opacity:0; stroke-width: 2; stroke: #000000" x1="202.051" y1="162.436" x2="176.618" y2="160.355"/>
    <polygon style="fill: #000000" points="201.643,167.419 217.997,163.74 202.458,157.452 "/>
    <polygon style="fill: none; fill-opacity:0; stroke-width: 2; stroke: #000000" points="201.643,167.419 217.997,163.74 202.458,157.452 "/>
  </g>
  <g>
    <line style="fill: none; fill-opacity:0; stroke-width: 2; stroke: #000000" x1="301.734" y1="242.562" x2="288.109" y2="190.987"/>
    <polygon style="fill: #000000" points="296.9,243.839 305.821,258.031 306.568,241.285 "/>
    <polygon style="fill: none; fill-opacity:0; stroke-width: 2; stroke: #000000" points="296.9,243.839 305.821,258.031 306.568,241.285 "/>
  </g>
  <g>
    <line style="fill: none; fill-opacity:0; stroke-width: 2; stroke: #000000" x1="191.193" y1="245.016" x2="207.81" y2="220.993"/>
    <polygon style="fill: #000000" points="187.081,242.171 182.091,258.175 195.305,247.86 "/>
    <polygon style="fill: none; fill-opacity:0; stroke-width: 2; stroke: #000000" points="187.081,242.171 182.091,258.175 195.305,247.86 "/>
  </g>
  <g>
    <line style="fill: none; fill-opacity:0; stroke-width: 2; stroke: #000000" x1="417.86" y1="137.84" x2="519.022" y2="124.486"/>
    <polygon style="fill: #000000" points="417.206,132.883 401.998,139.934 418.515,142.797 "/>
    <polygon style="fill: none; fill-opacity:0; stroke-width: 2; stroke: #000000" points="417.206,132.883 401.998,139.934 418.515,142.797 "/>
    <text font-size="12.7998" style="fill: #000000;text-anchor:middle;font-family:sans-serif;font-style:normal;font-weight:normal" x="460.014" y="142.275">download</text>
  </g>
  <g>
    <polygon style="fill: #ffffff" points="480,340 490,330 730,330 730,610 720,620 480,620 480,340 "/>
    <polygon style="fill: none; fill-opacity:0; stroke-width: 2; stroke: #000000" points="480,340 490,330 730,330 730,610 720,620 480,620 480,340 "/>
    <line style="fill: none; fill-opacity:0; stroke-width: 2; stroke: #000000" x1="480" y1="340" x2="720" y2="340"/>
    <line style="fill: none; fill-opacity:0; stroke-width: 2; stroke: #000000" x1="720" y1="340" x2="730" y2="330"/>
    <line style="fill: none; fill-opacity:0; stroke-width: 2; stroke: #000000" x1="720" y1="340" x2="720" y2="620"/>
    <text font-size="12.8" style="fill: #000000;text-anchor:start;font-family:sans-serif;font-style:normal;font-weight:normal" x="490" y="361.9">
      <tspan x="490" y="361.9">Source Repository</tspan>
    </text>
    <line style="fill: none; fill-opacity:0; stroke-width: 1; stroke: #000000" x1="490" y1="364.9" x2="607.05" y2="364.9"/>
  </g>
  <g>
    <rect style="fill: #ffffff" x="560" y="220" width="69.8" height="70"/>
    <rect style="fill: none; fill-opacity:0; stroke-width: 2; stroke: #000000" x="560" y="220" width="69.8" height="70"/>
    <rect style="fill: #ffffff" x="540" y="234" width="40" height="14"/>
    <rect style="fill: none; fill-opacity:0; stroke-width: 2; stroke: #000000" x="540" y="234" width="40" height="14"/>
    <rect style="fill: #ffffff" x="540" y="262" width="40" height="14"/>
    <rect style="fill: none; fill-opacity:0; stroke-width: 2; stroke: #000000" x="540" y="262" width="40" height="14"/>
    <text font-size="12.8" style="fill: #000000;text-anchor:start;font-family:sans-serif;font-style:normal;font-weight:normal" x="588" y="245.9">
      <tspan x="588" y="245.9">Jekyll</tspan>
    </text>
  </g>
  <g>
    <line style="fill: none; fill-opacity:0; stroke-width: 2; stroke: #000000" x1="569.758" y1="153.978" x2="572.665" y2="219.002"/>
    <polygon style="fill: #000000" points="574.753,153.755 569.044,137.994 564.763,154.201 "/>
    <polygon style="fill: none; fill-opacity:0; stroke-width: 2; stroke: #000000" points="574.753,153.755 569.044,137.994 564.763,154.201 "/>
    <text font-size="12.7998" style="fill: #000000;text-anchor:middle;font-family:sans-serif;font-style:normal;font-weight:normal" x="570.832" y="187.998">generate</text>
  </g>
  <g>
    <rect style="fill: #ffffff" x="520" y="380" width="106.45" height="36"/>
    <rect style="fill: none; fill-opacity:0; stroke-width: 2; stroke: #000000" x="520" y="380" width="106.45" height="36"/>
    <text font-size="12.8" style="fill: #000000;text-anchor:middle;font-family:sans-serif;font-style:normal;font-weight:normal" x="573.225" y="401.9">
      <tspan x="573.225" y="401.9">Site template</tspan>
    </text>
    <line style="fill: none; fill-opacity:0; stroke-width: 1; stroke: #000000" x1="530" y1="404.9" x2="616.45" y2="404.9"/>
  </g>
  <g>
    <rect style="fill: #ffffff" x="520" y="420" width="151.8" height="52"/>
    <rect style="fill: none; fill-opacity:0; stroke-width: 2; stroke: #000000" x="520" y="420" width="151.8" height="52"/>
    <text font-size="12.8" style="fill: #000000;text-anchor:middle;font-family:sans-serif;font-style:normal;font-weight:normal" x="595.9" y="441.9">
      <tspan x="595.9" y="441.9">Session details</tspan>
      <tspan x="595.9" y="457.9">+ YAML front matter</tspan>
    </text>
    <line style="fill: none; fill-opacity:0; stroke-width: 1; stroke: #000000" x1="548.125" y1="444.9" x2="643.675" y2="444.9"/>
    <line style="fill: none; fill-opacity:0; stroke-width: 1; stroke: #000000" x1="530" y1="460.9" x2="661.8" y2="460.9"/>
  </g>
  <g>
    <rect style="fill: #ffffff" x="520" y="480" width="151.8" height="52"/>
    <rect style="fill: none; fill-opacity:0; stroke-width: 2; stroke: #000000" x="520" y="480" width="151.8" height="52"/>
    <text font-size="12.8" style="fill: #000000;text-anchor:middle;font-family:sans-serif;font-style:normal;font-weight:normal" x="595.9" y="501.9">
      <tspan x="595.9" y="501.9">People details</tspan>
      <tspan x="595.9" y="517.9">+ YAML front matter</tspan>
    </text>
    <line style="fill: none; fill-opacity:0; stroke-width: 1; stroke: #000000" x1="551.025" y1="504.9" x2="640.775" y2="504.9"/>
    <line style="fill: none; fill-opacity:0; stroke-width: 1; stroke: #000000" x1="530" y1="520.9" x2="661.8" y2="520.9"/>
  </g>
  <g>
    <rect style="fill: #ffffff" x="540" y="540" width="124.6" height="70"/>
    <rect style="fill: none; fill-opacity:0; stroke-width: 2; stroke: #000000" x="540" y="540" width="124.6" height="70"/>
    <rect style="fill: #ffffff" x="520" y="554" width="40" height="14"/>
    <rect style="fill: none; fill-opacity:0; stroke-width: 2; stroke: #000000" x="520" y="554" width="40" height="14"/>
    <rect style="fill: #ffffff" x="520" y="582" width="40" height="14"/>
    <rect style="fill: none; fill-opacity:0; stroke-width: 2; stroke: #000000" x="520" y="582" width="40" height="14"/>
    <text font-size="12.8" style="fill: #000000;text-anchor:start;font-family:sans-serif;font-style:normal;font-weight:normal" x="568" y="565.9">
      <tspan x="568" y="565.9">jQuery Mobile</tspan>
    </text>
  </g>
  <g>
    <line style="fill: none; fill-opacity:0; stroke-width: 2; stroke: #000000" x1="598.275" y1="323.088" x2="594.9" y2="290"/>
    <polygon style="fill: #000000" points="593.301,323.595 599.899,339.005 603.249,322.58 "/>
    <polygon style="fill: none; fill-opacity:0; stroke-width: 2; stroke: #000000" points="593.301,323.595 599.899,339.005 603.249,322.58 "/>
  </g>
</svg>
